<?xml version='1.0' encoding='utf-8'?>
<mxfile host="app.diagrams.net"><diagram name="UML Class Diagram"><mxGraphModel><root><mxCell id="0" /><mxCell id="1" parent="0" /><mxCell id="2" value="Payment&#10;- transactionId: String&#10;- payer: Party&#10;- payee: Party&#10;- paymentInstruction: String&#10;- executionDate: String&#10;- amount: double&#10;- currency: String&#10;- creationTimestamp: String" style="shape=rectangle;whiteSpace=wrap;rounded=0;" parent="1" vertex="1"><mxGeometry x="20" y="20" width="220" height="160" as="geometry" /></mxCell><mxCell id="3" value="Party&#10;- name: String&#10;- bank: String&#10;- country: String&#10;- account: String" style="shape=rectangle;whiteSpace=wrap;rounded=0;" parent="1" vertex="1"><mxGeometry x="280" y="20" width="200" height="100" as="geometry" /></mxCell><mxCell id="4" value="FraudResult&#10;- transactionId: String&#10;- decision: String&#10;- message: String" style="shape=rectangle;whiteSpace=wrap;rounded=0;" parent="1" vertex="1"><mxGeometry x="520" y="20" width="220" height="100" as="geometry" /></mxCell><mxCell id="5" value="PaymentValidator&#10;+ validate(Payment): void" style="shape=rectangle;whiteSpace=wrap;rounded=0;" parent="1" vertex="1"><mxGeometry x="20" y="220" width="220" height="60" as="geometry" /></mxCell><mxCell id="6" value="BlacklistEngine&#10;+ check(Payment): FraudResult" style="shape=rectangle;whiteSpace=wrap;rounded=0;" parent="1" vertex="1"><mxGeometry x="280" y="220" width="220" height="60" as="geometry" /></mxCell><mxCell id="7" value="ValidationProcessor&#10;+ process(Exchange): void" style="shape=rectangle;whiteSpace=wrap;rounded=0;" parent="1" vertex="1"><mxGeometry x="20" y="320" width="220" height="60" as="geometry" /></mxCell><mxCell id="8" value="BlacklistProcessor&#10;+ process(Exchange): void" style="shape=rectangle;whiteSpace=wrap;rounded=0;" parent="1" vertex="1"><mxGeometry x="280" y="320" width="220" height="60" as="geometry" /></mxCell><mxCell id="9" value="payer" edge="1" parent="1" source="2" target="3"><mxGeometry relative="1" as="geometry" /></mxCell><mxCell id="10" value="payee" edge="1" parent="1" source="2" target="3"><mxGeometry relative="1" as="geometry" /></mxCell><mxCell id="11" value="" edge="1" parent="1" source="5" target="2"><mxGeometry relative="1" as="geometry" /></mxCell><mxCell id="12" value="" edge="1" parent="1" source="6" target="2"><mxGeometry relative="1" as="geometry" /></mxCell><mxCell id="13" value="" edge="1" parent="1" source="6" target="4"><mxGeometry relative="1" as="geometry" /></mxCell><mxCell id="14" value="" edge="1" parent="1" source="7" target="5"><mxGeometry relative="1" as="geometry" /></mxCell><mxCell id="15" value="" edge="1" parent="1" source="8" target="6"><mxGeometry relative="1" as="geometry" /></mxCell><mxCell id="16" value="" edge="1" parent="1" source="8" target="4"><mxGeometry relative="1" as="geometry" /></mxCell></root></mxGraphModel></diagram></mxfile>